/* XPM */
static char *_5dc2491bbeb496cd9580231af8aea70OI9wOeubeDBtvPwZ[] = {
/* columns rows colors chars-per-pixel */
"48 48 2 1 ",
"  c #B2FF00",
". c #00EBFC",
/* pixels */
"                                                ",
" .............................................. ",
" .............................................. ",
" .............................................. ",
" .............................................. ",
" .............................................. ",
" .............................................. ",
" .............................................. ",
" .............................................. ",
" .............................................. ",
" .............................................. ",
" .............................................. ",
" .............................................. ",
" .............................................. ",
" .............................................. ",
" .............................................. ",
" .............................................. ",
" .............................................. ",
" .............................................. ",
" .............................................. ",
" .............................................. ",
" .............................................. ",
" .............................................. ",
" .............................................. ",
" .............................................. ",
" .............................................. ",
" .............................................. ",
" .............................................. ",
" .............................................. ",
" .............................................. ",
" .............................................. ",
" .............................................. ",
" .............................................. ",
" .............................................. ",
" .............................................. ",
" .............................................. ",
" .............................................. ",
" .............................................. ",
" .............................................. ",
" .............................................. ",
" .............................................. ",
" .............................................. ",
" .............................................. ",
" .............................................. ",
" .............................................. ",
" .............................................. ",
" .............................................. ",
"                                                "
};
