/* XPM */
static char *_69d0d4c58f04e52de995252ae216995SNBvZCvaScT9E4UD[] = {
/* columns rows colors chars-per-pixel */
"48 48 3 1 ",
"  c None",
". c black",
"X c #EAFF00",
/* pixels */
"                                                ",
"                                                ",
"                                                ",
"                                                ",
"                                                ",
"                                                ",
"                                                ",
"                                                ",
"                                                ",
"                                                ",
"                    .......                     ",
"                 ...XXXXXXX...                  ",
"                .XXXXXXXXXXXXX.                 ",
"              ..XXXX.....XXXXXX..               ",
"             .XXXXX..X.X..XXXXXXX.              ",
"            .XXXXXX.XXXX..XXXXXXXX.             ",
"            .XXXXX..XXXXX..XXXXXXX.             ",
"           .XXXXXX..XXXXXX.XXXXXXXX.            ",
"          .XXXXXXXX..XXXX..XXXXXXXXX.           ",
"          .XXXXXXXXX.XXXX.XXXXXXXXXX.           ",
"          .XXXXXXXXX.XXXX.XXXXXXXXXX.           ",
"         .XXXXXXXXXX.XXXX.XXXXXXXXXXX.          ",
"         .XXXXXXXXXX.XXXX.XXXXXXXXXXX.          ",
"         .XXXXXXXXXX.XXXX.XXXXXXXXXXX.          ",
"         .XXXXXXXXXX.XXXX.XXXXXXXXXXX.          ",
"         .XXXXXXXXX..XXXXX.XXXXXXXXXX.          ",
"         .XXXXXXXX..XXXXXX...XXXXXXXX.          ",
"         .XXXXXXX..XXXXXXX....XXXXXXX.          ",
"          .XXXXX..XXXX..XXXXX.XXXXXX.           ",
"          .XXXXX.XXXXX..XXXXX.XXXXXX.           ",
"          .XXXXX.XXXX....XXXX.XXXXXX.           ",
"           .XXXX..XXX.XX.XXX..XXXXX.            ",
"            .XXXX.....XX.....XXXXX.             ",
"            .XXXXXXXXXXXXXXXXXXXXX.             ",
"             .XXXXXXXXXXXXXXXXXXX.              ",
"              ..XXXXXXXXXXXXXXX..               ",
"                .XXXXXXXXXXXXX.                 ",
"                 ...XXXXXXX...                  ",
"                    .......                     ",
"                                                ",
"                                                ",
"                                                ",
"                                                ",
"                                                ",
"                                                ",
"                                                ",
"                                                ",
"                                                "
};
